<?xml version="1.0" standalone="no"?><!DOCTYPE svg PUBLIC "-//W3C//DTD SVG 1.1//EN" "http://www.w3.org/Graphics/SVG/1.1/DTD/svg11.dtd"><svg t="1726332256009" class="icon" viewBox="0 0 1024 1024" version="1.1" xmlns="http://www.w3.org/2000/svg" p-id="7653" id="mx_n_1726332256010" xmlns:xlink="http://www.w3.org/1999/xlink" width="200" height="200"><path d="M549.98329 1023.94625h-70.977461a310.274437 310.274437 0 0 1-137.063632-104.517738c-31.094632-41.253466-60.711126-83.635691-90.892-125.534162C126.134166 620.549169 121.726629 430.810102 181.604624 235.803492 226.647495 89.387284 357.798578 0.188422 512.949234 0.000296c157.596301-0.188127 284.877352 89.682615 335.322144 235.776321 15.883256 46.091006 22.145183 94.063277 31.524635 141.524919v181.085245c-11.986349 49.208531-25.155208 98.013934-48.375399 143.406184-40.017205 77.938143-90.83825 148.781228-144.400568 217.689297-36.469676 46.951013-81.10942 83.151937-137.036756 104.463988z m-344.00284-471.364517c1.693139 104.813365 115.160326 209.304228 222.580587 203.875433 17.388269-0.886882 21.500178-8.411944 13.437611-22.521436-49.746036-88.392605-116.772839-158.832561-210.836115-200.677282-17.361393-7.740064-26.928972-2.875649-25.047707 19.377035z m615.603832 7.713189c3.520654-26.687095-3.171276-36.38905-24.187699-27.009598-94.063277 41.871596-161.439458 112.123426-210.64799 200.892283-12.201351 21.983932 4.568788 23.784571 19.887665 21.500178 40.635335-6.127551 79.846284-17.468894 115.294702-38.915322 61.19488-36.819054 96.670173-90.193245 99.787698-156.413791z" p-id="7654" fill="#7ed4ce" data-spm-anchor-id="a313x.search_index.0.i8.113b3a81ksSoxA" class=""></path></svg>